Coordinates
version=1
nRows=20
nColumns=34
inDegrees=yes

Units are S.I. units (second, meters, Newtons, ...)
Angles are in degrees.

endheader
time	pelvis_tilt	pelvis_list	pelvis_rotation	pelvis_tx	pelvis_ty	pelvis_tz	hip_flexion_r	hip_adduction_r	hip_rotation_r	knee_angle_r	ankle_angle_r	subtalar_angle_r	mtp_angle_r	hip_flexion_l	hip_adduction_l	hip_rotation_l	knee_angle_l	socket_flexion	socket_adduction	socket_rotation	socket_tx	socket_ty	socket_tz	pros_ankle_rx	pros_ankle_ry	pros_ankle_rz	pros_ankle_tx	pros_ankle_ty	pros_ankle_tz	foot_flex	lumbar_extension	lumbar_bending	lumbar_rotation
      0.30000000	      1.42472152	     -3.47229631	     -2.34187201	     -0.38023477	      1.04798899	      0.35022352	      9.88013001	     -1.38659958	     -7.57853386	    -64.44151346	     -1.80105175	     11.43440800	     18.33386471	      3.27886927	     -1.75684671	     -1.30530644	     -7.76146706	      7.60976676	      0.00000000	      0.00000000	      0.00000000	     -0.02451212	      0.00000000	      0.00000000	      0.00000000	      0.00000000	      0.00000000	      0.00000000	      0.00000000	      5.78446145	     -9.32396131	     -5.64417202	    -19.50292511
      0.30416667	      1.68685468	     -3.45760551	     -2.29039813	     -0.37456298	      1.04914637	      0.35000820	     10.14408189	     -1.46755314	     -7.70763922	    -64.40110769	     -0.77783583	     12.01343489	     18.14145648	      2.26448360	     -1.69894475	     -1.28738335	     -6.75522777	      8.10919676	      0.00000000	      0.00000000	      0.00000000	     -0.02412317	      0.00000000	      0.00000000	      0.00000000	      0.00000000	      0.00000000	      0.00000000	      0.00000000	      5.90107217	     -9.51870263	     -5.69277684	    -19.82032407
      0.30833333	      1.79045133	     -3.55470961	     -2.20782285	     -0.36934374	      1.04995455	      0.34971573	     10.61481291	     -1.38178462	     -7.85593463	    -64.31716258	     -0.02788783	     11.87429031	     18.17826163	      1.77092098	     -1.77150561	     -1.27216473	     -6.65654929	      8.08082469	      0.00000000	      0.00000000	      0.00000000	     -0.02384681	      0.00000000	      0.00000000	      0.00000000	      0.00000000	      0.00000000	      0.00000000	      0.00000000	      6.09788130	     -9.58377927	     -5.55014998	    -19.85605432
      0.31250000	      1.86619063	     -3.67381421	     -2.11052651	     -0.36405308	      1.05073393	      0.34946387	     11.07713499	     -1.21386479	     -7.93970775	    -64.15377155	      0.95803474	     11.81660167	     18.23303555	      1.26932579	     -1.87724328	     -1.22183990	     -6.45946364	      8.09080195	      0.00000000	      0.00000000	      0.00000000	     -0.02362650	      0.00000000	      0.00000000	      0.00000000	      0.00000000	      0.00000000	      0.00000000	      0.00000000	      6.20499795	     -9.64543258	     -5.38338354	    -19.98483816
      0.31666667	      1.95259775	     -3.78236112	     -2.04038720	     -0.35884611	      1.05152762	      0.34920471	     11.53424965	     -1.08956317	     -8.05186217	    -63.94653237	      1.80444078	     11.84578781	     18.26800498	      0.75446906	     -1.96668392	     -1.19410199	     -6.23916302	      8.13856303	      0.00000000	      0.00000000	      0.00000000	     -0.02336189	      0.00000000	      0.00000000	      0.00000000	      0.00000000	      0.00000000	      0.00000000	      0.00000000	      6.34647179	     -9.69852879	     -5.21334709	    -20.14151302
      0.32083333	      2.03754700	     -3.89984158	     -1.95688687	     -0.35361772	      1.05231090	      0.34895347	     11.97104309	     -0.94865198	     -8.16744963	    -63.67557981	      2.66937152	     11.93709928	     18.28738806	      0.21243080	     -2.07172358	     -1.13674942	     -5.93424614	      8.22325107	      0.00000000	      0.00000000	      0.00000000	     -0.02308599	      0.00000000	      0.00000000	      0.00000000	      0.00000000	      0.00000000	      0.00000000	      0.00000000	      6.45584288	     -9.75021233	     -5.03758723	    -20.32340579
      0.32500000	      2.12070745	     -3.99918415	     -1.88889128	     -0.34842959	      1.05308285	      0.34869425	     12.40941653	     -0.84798005	     -8.30842233	    -63.35875862	      3.40679047	     12.03027156	     18.29060568	     -0.31481537	     -2.15393848	     -1.11019006	     -5.65766564	      8.30894021	      0.00000000	      0.00000000	      0.00000000	     -0.02277070	      0.00000000	      0.00000000	      0.00000000	      0.00000000	      0.00000000	      0.00000000	      0.00000000	      6.59170130	     -9.80688623	     -4.89753391	    -20.48136521
      0.32916667	      2.17036603	     -4.01188445	     -1.86398749	     -0.34339246	      1.05375745	      0.34851128	     12.91224011	     -0.83959450	     -8.39780287	    -63.01118531	      3.54479469	     12.02850702	     18.29107193	     -0.70194638	     -2.14284800	     -1.09799088	     -5.66584733	      8.19331381	      0.00000000	      0.00000000	      0.00000000	     -0.02236890	      0.00000000	      0.00000000	      0.00000000	      0.00000000	      0.00000000	      0.00000000	      0.00000000	      6.65653664	     -9.85595547	     -4.88560579	    -20.50208967
      0.33333333	      2.58380037	     -4.11663069	     -1.81572673	     -0.33777963	      1.05517199	      0.34829953	     12.86444190	     -0.76917861	     -8.58359888	    -62.50196466	      4.83645016	     12.57766532	     17.81545824	     -2.05795172	     -2.21532331	     -1.09126719	     -4.11541181	      9.06880303	      0.00000000	      0.00000000	      0.00000000	     -0.02179286	      0.00000000	      0.00000000	      0.00000000	      0.00000000	      0.00000000	      0.00000000	      0.00000000	      6.81331087	    -10.27932267	     -4.71838951	    -20.79666958
      0.33750000	      2.60443083	     -4.20557970	     -1.75827470	     -0.33272666	      1.05582897	      0.34812373	     13.33323304	     -0.65656753	     -8.71770656	    -62.00185244	      5.27774737	     12.54273175	     17.82561311	     -2.41039120	     -2.29386547	     -1.12902288	     -4.09644041	      9.01205766	      0.00000000	      0.00000000	      0.00000000	     -0.02139500	      0.00000000	      0.00000000	      0.00000000	      0.00000000	      0.00000000	      0.00000000	      0.00000000	      6.94535437	    -10.31853419	     -4.62853015	    -20.84377432
      0.34166667	      2.62287764	     -4.33883743	     -1.68539020	     -0.32768809	      1.05643812	      0.34791873	     13.78214896	     -0.47691094	     -8.84488407	    -61.46964755	      5.88101097	     12.53313101	     17.83895465	     -2.78011305	     -2.42426070	     -1.11942950	     -4.01594602	      8.99065010	      0.00000000	      0.00000000	      0.00000000	     -0.02111160	      0.00000000	      0.00000000	      0.00000000	      0.00000000	      0.00000000	      0.00000000	      0.00000000	      7.06594942	    -10.34194654	     -4.44742474	    -20.94402275
      0.34583333	      2.66049457	     -4.50453200	     -1.61451692	     -0.32270097	      1.05699272	      0.34769037	     14.20908028	     -0.27062118	     -8.98788405	    -60.91268649	      6.51824089	     12.56466628	     17.82972597	     -3.19441657	     -2.59031428	     -1.07868047	     -3.87448728	      9.00336393	      0.00000000	      0.00000000	      0.00000000	     -0.02092761	      0.00000000	      0.00000000	      0.00000000	      0.00000000	      0.00000000	      0.00000000	      0.00000000	      7.18647372	    -10.35508281	     -4.20590251	    -21.09161597
      0.35000000	      2.66848529	     -4.54071858	     -1.57314454	     -0.31773870	      1.05760252	      0.34753629	     14.65969892	     -0.21242544	     -9.11259902	    -60.28636093	      6.79960209	     12.57567499	     17.81544786	     -3.52542738	     -2.60841492	     -1.10796931	     -3.84569407	      8.96239918	      0.00000000	      0.00000000	      0.00000000	     -0.02043898	      0.00000000	      0.00000000	      0.00000000	      0.00000000	      0.00000000	      0.00000000	      0.00000000	      7.27266574	    -10.42089113	     -4.12876732	    -21.14807533
      0.35416667	      2.71773052	     -4.80172656	     -1.46071775	     -0.31268133	      1.05814413	      0.34725120	     14.99642620	      0.11370280	     -9.29598619	    -59.58398956	      7.56887873	     12.65147038	     17.75331494	     -3.99635962	     -2.88488477	     -1.02590529	     -3.57096790	      9.06158390	      0.00000000	      0.00000000	      0.00000000	     -0.02036663	      0.00000000	      0.00000000	      0.00000000	      0.00000000	      0.00000000	      0.00000000	      0.00000000	      7.41567120	    -10.41381897	     -3.76766349	    -21.37698232
      0.35833333	      2.72941677	     -4.82613129	     -1.41738427	     -0.30779539	      1.05867128	      0.34711348	     15.42661966	      0.15906119	     -9.42375886	    -58.89464212	      7.79751317	     12.66694208	     17.71408475	     -4.33034500	     -2.89413021	     -1.05695761	     -3.52250030	      9.02787681	      0.00000000	      0.00000000	      0.00000000	     -0.01991739	      0.00000000	      0.00000000	      0.00000000	      0.00000000	      0.00000000	      0.00000000	      0.00000000	      7.50699299	    -10.49038857	     -3.71236960	    -21.43227282
      0.36250000	      3.16663586	     -5.02315826	     -1.34839972	     -0.30239226	      1.05998222	      0.34689884	     15.23498815	      0.37593934	     -9.62855759	    -58.00719384	      8.47852699	     12.95402899	     16.50939340	     -5.63128122	     -3.08242077	     -1.01173193	     -2.17720772	      9.75657547	      0.00000000	      0.00000000	      0.00000000	     -0.01931039	      0.00000000	      0.00000000	      0.00000000	      0.00000000	      0.00000000	      0.00000000	      0.00000000	      7.63236489	    -10.97654050	     -3.41494056	    -21.71344855
      0.36666667	      3.14799893	     -5.03359718	     -1.31156224	     -0.29751955	      1.06042906	      0.34681000	     15.65997325	      0.42572338	     -9.73232290	    -57.23265984	      8.70692491	     12.94475807	     16.48927318	     -5.90240993	     -3.08000344	     -1.05726847	     -2.20290263	      9.68927212	      0.00000000	      0.00000000	      0.00000000	     -0.01880803	      0.00000000	      0.00000000	      0.00000000	      0.00000000	      0.00000000	      0.00000000	      0.00000000	      7.73577942	    -11.02831247	     -3.40554649	    -21.72364423
      0.37083333	      3.15567565	     -5.30507338	     -1.20234323	     -0.29248977	      1.06084788	      0.34659550	     15.96711688	      0.79240300	     -9.90669258	    -56.32841165	      9.25269425	     12.91584260	     16.35501041	     -6.29159878	     -3.37803076	     -1.00287722	     -2.03172651	      9.71422149	      0.00000000	      0.00000000	      0.00000000	     -0.01870519	      0.00000000	      0.00000000	      0.00000000	      0.00000000	      0.00000000	      0.00000000	      0.00000000	      7.85877176	    -10.99071282	     -3.00070513	    -21.87535198
      0.37500000	      3.14697064	     -5.27207946	     -1.22185822	     -0.28768437	      1.06109724	      0.34658445	     16.42294146	      0.77692010	    -10.00827996	    -55.61161187	      9.38637497	     12.90067016	     16.33405361	     -6.59396717	     -3.32558329	     -1.01132880	     -2.04791708	      9.60060516	      0.00000000	      0.00000000	      0.00000000	     -0.01833592	      0.00000000	      0.00000000	      0.00000000	      0.00000000	      0.00000000	      0.00000000	      0.00000000	      7.94096258	    -11.07017056	     -3.00431588	    -21.88678737
      0.37916667	      3.13918111	     -5.40576487	     -1.08775369	     -0.28273764	      1.06165417	      0.34645716	     16.66962892	      1.02368932	    -10.13053742	    -54.52160286	      9.77791804	     12.87446802	     16.25417886	     -6.88870712	     -3.47908670	     -1.00181986	     -1.98250500	      9.64333724	      0.00000000	      0.00000000	      0.00000000	     -0.01781870	      0.00000000	      0.00000000	      0.00000000	      0.00000000	      0.00000000	      0.00000000	      0.00000000	      8.10415814	    -11.05863371	     -2.95720825	    -21.97109453
